<svg xmlns="http://www.w3.org/2000/svg" xmlns:xlink="http://www.w3.org/1999/xlink" width="50" height="50" viewBox="0 0 50 50">
      <defs>
        <clipPath id="clip-icon-coach-trigger-_elementary">
          <rect width="50" height="50"></rect>
        </clipPath>
      </defs>
      <g id="icon-coach-trigger-_elementary" data-name="icon-coach-trigger- elementary" clip-path="url(#clip-icon-coach-trigger-_elementary)">
        <g id="Rectangle_4832" data-name="Rectangle 4832" fill="#76b853" stroke="#fff" stroke-width="2">
          <path d="M25,0H58a0,0,0,0,1,0,0V50a0,0,0,0,1,0,0H25A25,25,0,0,1,0,25v0A25,25,0,0,1,25,0Z" stroke="none"></path>
          <path d="M25,1H56a1,1,0,0,1,1,1V48a1,1,0,0,1-1,1H25A24,24,0,0,1,1,25v0A24,24,0,0,1,25,1Z" fill="none"></path>
        </g>
        <path id="Subtraction_41" data-name="Subtraction 41" d="M-5320-2316a17.885,17.885,0,0,1-12.729-5.272A17.881,17.881,0,0,1-5338-2334a17.883,17.883,0,0,1,5.272-12.728A17.885,17.885,0,0,1-5320-2352a17.881,17.881,0,0,1,12.727,5.272A17.881,17.881,0,0,1-5302-2334a17.88,17.88,0,0,1-5.272,12.728A17.881,17.881,0,0,1-5320-2316Zm-2.666-10.721v3.569h4.2v-3.569Zm2.469-14.242a2.586,2.586,0,0,1,1.977.742,2.912,2.912,0,0,1,.692,2.055,3.92,3.92,0,0,1-.607,2.141,7.567,7.567,0,0,1-1.62,1.784,9.843,9.843,0,0,0-2.3,2.255,5.792,5.792,0,0,0-.592,2.926h4.152a5.2,5.2,0,0,1,.271-1.862,3.428,3.428,0,0,1,1.143-1.349,9.53,9.53,0,0,0,2.662-2.584,5.806,5.806,0,0,0,1.063-3.353,5.62,5.62,0,0,0-1.819-4.4,7.307,7.307,0,0,0-5.016-1.62,7.6,7.6,0,0,0-4.817,1.455,4.943,4.943,0,0,0-1.8,4.2l.028.086h4.054a2.332,2.332,0,0,1,.749-1.841A2.667,2.667,0,0,1-5320.2-2340.963Z" transform="translate(5347 2359)" fill="#fff"></path>
      </g>
    </svg>