<svg width="23" height="23" viewBox="0 0 23 23" fill="none" class="footer-social-icon"><circle cx="11.5" cy="11.5" r="11.5" fill="white"></circle><path d="M7.82302 16.5932C7.82302 16.7037 7.7812 16.7991 7.69756 16.8795C7.61391 16.9598 7.51458 17 7.39957 17H5.42345C5.30844 17 5.20911 16.9598 5.12547 16.8795C5.04182 16.7991 5 16.7037 5 16.5932V9.57123C5 9.46073 5.04182 9.3653 5.12547 9.28493C5.20911 9.20457 5.30844 9.16438 5.42345 9.16438H7.39957C7.51458 9.16438 7.61391 9.20457 7.69756 9.28493C7.7812 9.3653 7.82302 9.46073 7.82302 9.57123V16.5932ZM7.82302 7.92877C7.82302 8.03927 7.7812 8.1347 7.69756 8.21507C7.61391 8.29543 7.51458 8.33562 7.39957 8.33562H5.42345C5.30844 8.33562 5.20911 8.29543 5.12547 8.21507C5.04182 8.1347 5 8.03927 5 7.92877V6.40685C5 6.29635 5.04182 6.20091 5.12547 6.12055C5.20911 6.04018 5.30844 6 5.42345 6H7.39957C7.51458 6 7.61391 6.04018 7.69756 6.12055C7.7812 6.20091 7.82302 6.29635 7.82302 6.40685V7.92877Z" fill="#0F3C6A"></path><path d="M18 16.5932C18 16.7037 17.9582 16.7991 17.8745 16.8795C17.7909 16.9598 17.6916 17 17.5765 17H15.6004C15.4854 17 15.3861 16.9598 15.3024 16.8795C15.2188 16.7991 15.177 16.7037 15.177 16.5932V12.7808C15.177 12.3489 15.0672 12.0023 14.8476 11.7411C14.6281 11.4799 14.283 11.3493 13.8125 11.3493C13.342 11.3493 12.997 11.4799 12.7774 11.7411C12.5683 12.0023 12.4637 12.3489 12.4637 12.7808V16.5932C12.4637 16.7037 12.4219 16.7991 12.3383 16.8795C12.2546 16.9598 12.1553 17 12.0403 17H10.0642C9.94915 17 9.84983 16.9598 9.76618 16.8795C9.68254 16.7991 9.64071 16.7037 9.64071 16.5932V9.57123C9.64071 9.46073 9.68254 9.3653 9.76618 9.28493C9.84983 9.20457 9.94915 9.16438 10.0642 9.16438H11.9619C12.0769 9.16438 12.1762 9.20457 12.2599 9.28493C12.3435 9.3653 12.3853 9.46073 12.3853 9.57123V9.91781C12.469 9.81735 12.5735 9.71187 12.699 9.60137C12.8245 9.49087 12.9761 9.39543 13.1538 9.31507C13.3316 9.22466 13.5354 9.15434 13.7655 9.10411C14.0059 9.04384 14.283 9.0137 14.5967 9.0137C15.0986 9.0137 15.5586 9.08402 15.9768 9.22466C16.3951 9.35525 16.7506 9.56119 17.0433 9.84247C17.3465 10.1237 17.5818 10.4804 17.7491 10.9123C17.9164 11.3443 18 11.8566 18 12.4493V16.5932Z" fill="#0F3C6A"></path></svg>