<svg width="23" height="23" viewBox="0 0 23 23" fill="none" class="mr-1 footer-social-icon"><circle cx="11.5" cy="11.5" r="11.5" fill="white"></circle><path d="M11.7614 8.35616C9.87715 8.35616 8.35645 9.87686 8.35645 11.7611C8.35645 13.6454 9.87715 15.1661 11.7614 15.1661C13.6457 15.1661 15.1664 13.6454 15.1664 11.7611C15.1664 9.87686 13.6457 8.35616 11.7614 8.35616ZM11.7614 13.9741C10.5429 13.9741 9.54844 12.9797 9.54844 11.7611C9.54844 10.5426 10.5429 9.54815 11.7614 9.54815C12.98 9.54815 13.9744 10.5426 13.9744 11.7611C13.9744 12.9797 12.98 13.9741 11.7614 13.9741ZM15.3059 7.42315C14.8659 7.42315 14.5106 7.77842 14.5106 8.21837C14.5106 8.65831 14.8659 9.01358 15.3059 9.01358C15.7458 9.01358 16.1011 8.65997 16.1011 8.21837C16.1012 8.1139 16.0807 8.01043 16.0408 7.91389C16.0009 7.81736 15.9423 7.72964 15.8685 7.65577C15.7946 7.5819 15.7069 7.52333 15.6103 7.48342C15.5138 7.4435 15.4103 7.42302 15.3059 7.42315ZM18.3987 11.7611C18.3987 10.8447 18.407 9.93663 18.3556 9.02188C18.3041 7.95938 18.0617 7.01641 17.2848 6.23946C16.5062 5.46085 15.5648 5.22012 14.5023 5.16866C13.5859 5.11719 12.6778 5.12549 11.7631 5.12549C10.8467 5.12549 9.93858 5.11719 9.02383 5.16866C7.96133 5.22012 7.01836 5.46251 6.24141 6.23946C5.4628 7.01807 5.22208 7.95938 5.17061 9.02188C5.11915 9.93829 5.12745 10.8464 5.12745 11.7611C5.12745 12.6759 5.11915 13.5857 5.17061 14.5004C5.22208 15.5629 5.46446 16.5059 6.24141 17.2828C7.02003 18.0614 7.96133 18.3022 9.02383 18.3536C9.94024 18.4051 10.8483 18.3968 11.7631 18.3968C12.6795 18.3968 13.5876 18.4051 14.5023 18.3536C15.5648 18.3022 16.5078 18.0598 17.2848 17.2828C18.0634 16.5042 18.3041 15.5629 18.3556 14.5004C18.4087 13.5857 18.3987 12.6775 18.3987 11.7611ZM16.9378 15.6758C16.8166 15.9779 16.6705 16.2037 16.4364 16.4361C16.2023 16.6702 15.9782 16.8163 15.6761 16.9375C14.8028 17.2845 12.7293 17.2065 11.7614 17.2065C10.7936 17.2065 8.71836 17.2845 7.84512 16.9392C7.54297 16.818 7.31719 16.6719 7.08477 16.4378C6.85069 16.2037 6.7046 15.9796 6.5834 15.6774C6.23809 14.8025 6.31612 12.729 6.31612 11.7611C6.31612 10.7933 6.23809 8.71807 6.5834 7.84483C6.7046 7.54268 6.85069 7.3169 7.08477 7.08448C7.31885 6.85206 7.54297 6.7043 7.84512 6.58311C8.71836 6.2378 10.7936 6.31583 11.7614 6.31583C12.7293 6.31583 14.8045 6.2378 15.6777 6.58311C15.9799 6.7043 16.2057 6.8504 16.4381 7.08448C16.6722 7.31856 16.8183 7.54268 16.9395 7.84483C17.2848 8.71807 17.2067 10.7933 17.2067 11.7611C17.2067 12.729 17.2848 14.8025 16.9378 15.6758Z" fill="#0F3C6A"></path></svg>