<svg width="23" height="23" viewBox="0 0 23 23" fill="none" class="mr-1 footer-social-icon"><circle cx="11.5" cy="11.5" r="11.5" fill="white"></circle><path d="M18 8.06909C17.5587 8.24483 17.0785 8.37131 16.5838 8.42057C17.0974 8.1389 17.482 7.69391 17.6654 7.16909C17.1835 7.43375 16.6556 7.61933 16.105 7.71761C15.8749 7.49051 15.5966 7.3096 15.2875 7.18614C14.9783 7.06268 14.645 6.99932 14.3081 7.00001C12.9453 7.00001 11.8493 8.01983 11.8493 9.27131C11.8493 9.44705 11.8724 9.62279 11.9099 9.79187C9.86925 9.69335 8.04927 8.79335 6.83932 7.41539C6.61886 7.76303 6.50332 8.15886 6.50475 8.56169C6.50475 9.34986 6.93883 10.0448 7.60077 10.4536C7.21068 10.4394 6.82972 10.3404 6.48888 10.1646V10.1926C6.48888 11.2963 7.33397 12.2109 8.46028 12.4213C8.2488 12.472 8.03126 12.498 7.81276 12.4985C7.65269 12.4985 7.50126 12.4839 7.3484 12.4639C7.6599 13.3639 8.567 14.0176 9.64716 14.0389C8.80207 14.65 7.74354 15.0095 6.59416 15.0095C6.38793 15.0095 6.19757 15.0028 6 14.9815C7.09025 15.6272 8.38385 16 9.77695 16C14.2995 16 16.7742 12.5411 16.7742 9.53891C16.7742 9.44039 16.7742 9.34187 16.767 9.24335C17.2458 8.91983 17.6654 8.51909 18 8.06909Z" fill="#0F3C6A"></path></svg>